{"title":"Discipline (2011) DVDRip - RadioResearch","uid":8435932,"size":899051737,"categoryP":"video","categoryS":"movies","magnet":"?xt=urn:btih:9e5a43a96c2dac035c8ab55bb6dc0cd1b49a36d4&amp;dn=Discipline+%282011%29+DVDRip+-+RadioResearch&amp;tr=udp%3A%2F%2Ftracker.openbittorrent.com%3A80&amp;tr=udp%3A%2F%2Fopen.demonii.com%3A1337&amp;tr=udp%3A%2F%2Ftracker.coppersurfer.tk%3A6969&amp;tr=udp%3A%2F%2Fexodus.desync.com%3A6969","seeders":0,"leechers":0,"uploader":"RadioResearch","files":3,"time":1367630152,"description":"*******************************************************************************\n                   Discipline (2011) DVDRip - RadioResearch\n*******************************************************************************\n\n-------------------------------------------------------------------------------\n                              General Information\n-------------------------------------------------------------------------------\nType.................: Movie\n\n\n\nVideo Format.........: AVI\nVideo Bitrate........: 1213\nResolution...........: 720 x 318\nColor................: 8 bit\nFPS..................: 23.976\nSource...............: DVD 2.25:1\nOriginal Format......: NTSC\nGenre................: Thriller\nIMDb Rating..........: Not yet rated\nMovie Information....: http://www.imdb.com/title/tt1869373/\n\n-------------------------------------------------------------------------------\n                               Post Information\n-------------------------------------------------------------------------------\nPosted by............: RadioResearch\nPosted on............: 5/3/2013\n\n-------------------------------------------------------------------------------\n                                 Release Notes\n-------------------------------------------------------------------------------\nSEEDBOX SUPPORTED!!\n\nA series of murders are confounding the local police with its residue of \nmutilated corpses. It begins when a sadistic cult murders willing victims for \nentertainment. Professor Lafitte, a rich sophisticated man, whose hobby is \ncollecting souls, leads the cult. One of his students is Jack, brilliant and \nobsessed with composing avant-grade music. He decides to compose a concerto for \nsynthesizer &amp; samplers that is based on the recorded sound of human screams. \nJack is drawn into the clutches of the professor, who is guiding him into a dark \npath of self discovery, in his attempt to create a new kind of music. In his \nquest for this new kind of music, he begins to seek out human pain. The \nprofessor leads Jack into his much more dangerous private activities. Jack's \ngirlfriend Claudia and his best friend Benny are journalists for the collage \nnewspaper and are covering a series of bizarre murders and mutilations that has \nthe police stumped. Benny finally discovers that there is a connection ... \n\nNot too bad a film.  Just recently released on DVD for whatever reason....\nThe film took 10 years(!) to finish!\n\nEnjoy!\n\nRadioResearch\n\nGeneral\nComplete name                            : G:AVIaviDISCIPLINEDiscipline \n(2011) DVDRip - RadioResearchDISCIPLINE.{RadioResearch}.avi\nFormat                                   : AVI\nFormat/Info                              : Audio Video Interleave\nFile size                                : 857 MiB\nDuration                                 : 1h 38mn\nOverall bit rate                         : 1 213 Kbps\nMovie name                               : DISCIPLINE.Title1.DVDRip\nWriting application                      : Lavf53.32.100\nOriginal source form/Name                : DISCIPLINE\n\nVideo\nID                                       : 0\nFormat                                   : MPEG-4 Visual\nFormat profile                           : Advanced Simple@L5\nFormat settings, BVOP                    : 2\nFormat settings, QPel                    : No\nFormat settings, GMC                     : No warppoints\nFormat settings, Matrix                  : Default (H.263)\nMuxing mode                              : Packed bitstream\nCodec ID                                 : XVID\nCodec ID/Hint                            : XviD\nDuration                                 : 1h 38mn\nBit rate                                 : 1 075 Kbps\nWidth                                    : 720 pixels\nHeight                                   : 318 pixels\nDisplay aspect ratio                     : 2.25:1\nFrame rate                               : 23.976 fps\nColor space                              : YUV\nChroma subsampling                       : 4:2:0\nBit depth                                : 8 bits\nScan type                                : Progressive\nCompression mode                         : Lossy\nBits/(Pixel*Frame)                       : 0.196\nStream size                              : 759 MiB (89%)\nWriting library                          : XviD 64\n\nAudio\nID                                       : 1\nFormat                                   : AC-3\nFormat/Info                              : Audio Coding 3\nMode extension                           : CM (complete main)\nFormat settings, Endianness              : Big\nCodec ID                                 : 2000\nDuration                                 : 1h 38mn\nBit rate mode                            : Constant\nBit rate                                 : 128 Kbps\nChannel(s)                               : 2 channels\nChannel positions                        : Front: L R\nSampling rate                            : 48.0 KHz\nBit depth                                : 16 bits\nCompression mode                         : Lossy\nStream size                              : 90.4 MiB (11%)\nAlignment                                : Aligned on interleaves\nInterleave, duration                     : 32 ms (0.77 video frame)\n\nAVI FILE MD5 HASH  d3e1f862e18f02e1823187fe4ddc4bed\n\n\n\n-------------------------------------------------------------------------------\nGenerated with Cool NFO Creator - http://fly.to/coolbeans\n-------------------------------------------------------------------------------\n","torrent":{"xt":"urn:btih:9e5a43a96c2dac035c8ab55bb6dc0cd1b49a36d4","amp;dn":"Discipline+%282011%29+DVDRip+-+RadioResearch","amp;tr":["udp%3A%2F%2Ftracker.openbittorrent.com%3A80","udp%3A%2F%2Fopen.demonii.com%3A1337","udp%3A%2F%2Ftracker.coppersurfer.tk%3A6969","udp%3A%2F%2Fexodus.desync.com%3A6969"],"infoHash":"9e5a43a96c2dac035c8ab55bb6dc0cd1b49a36d4","infoHashBuffer":{"type":"Buffer","data":[158,90,67,169,108,45,172,3,92,138,181,91,182,220,12,209,180,154,54,212]},"announce":[],"urlList":[]}}